<svg xmlns="http://www.w3.org/2000/svg" viewBox="0 0 440 96" role="img" aria-label="Peagen">
  <rect width="96" height="96" rx="22" fill="#100a1f"/>
  <path d="M20 64c12-21 27-32 45-32h11v18H65c-9 0-17 5-24 14h35v18H20V64Z" fill="#a78bfa"/>
  <path d="M25 24h28c14 0 23 8 23 20s-9 20-23 20H41v18H20V24h5Zm16 17v8h12c3 0 5-2 5-4s-2-4-5-4H41Z" fill="#f6f2ff"/>
  <circle cx="74" cy="24" r="7" fill="#34d399"/>
  <text x="120" y="59" fill="#f6f2ff" font-family="Inter, Segoe UI, Arial, sans-serif" font-size="42" font-weight="800">Peagen</text>
  <text x="122" y="80" fill="#bfb4d7" font-family="Inter, Segoe UI, Arial, sans-serif" font-size="13" font-weight="700">Governed agentic delivery</text>
</svg>
